<svg width="20" height="20" viewBox="0 0 20 20" fill="none" xmlns="http://www.w3.org/2000/svg">
  <!-- EXACT 20x20px Edit Icon from Figma specifications -->
  <path d="M14.1667 2.5C14.3857 2.28113 14.6454 2.10752 14.9312 1.98906C15.2169 1.87061 15.5238 1.80957 15.8333 1.80957C16.1429 1.80957 16.4498 1.87061 16.7355 1.98906C17.0213 2.10752 17.281 2.28113 17.5 2.5C17.7189 2.71887 17.8925 2.97862 18.0109 3.26438C18.1294 3.55014 18.1904 3.85705 18.1904 4.16667C18.1904 4.47629 18.1294 4.78319 18.0109 5.06896C17.8925 5.35472 17.7189 5.61447 17.5 5.83334L6.25 17.0833L1.66667 18.3333L2.91667 13.75L14.1667 2.5Z" stroke="#6B7280" stroke-width="2" stroke-linecap="round" stroke-linejoin="round"/>
</svg>