<svg width="400" height="600" viewBox="0 0 400 600" fill="none" xmlns="http://www.w3.org/2000/svg">
  <!-- Phone 1 (Left) -->
  <g transform="translate(20, 50) rotate(-15)">
    <rect width="180" height="360" rx="25" fill="#1f2937"/>
    <rect x="8" y="8" width="164" height="344" rx="17" fill="#111827"/>
    <rect x="15" y="20" width="150" height="300" rx="12" fill="#3BB77E"/>

    <!-- Screen content for Phone 1 -->
    <rect x="25" y="40" width="130" height="20" rx="10" fill="white" opacity="0.9"/>
    <text x="90" y="54" text-anchor="middle" fill="#1f2937" font-family="Arial" font-size="10" font-weight="600">TindaGo</text>

    <circle cx="45" cy="80" r="15" fill="white" opacity="0.8"/>
    <rect x="70" y="70" width="80" height="8" rx="4" fill="white" opacity="0.7"/>
    <rect x="70" y="85" width="60" height="6" rx="3" fill="white" opacity="0.5"/>

    <rect x="25" y="110" width="130" height="60" rx="8" fill="white" opacity="0.1"/>
    <rect x="30" y="120" width="120" height="4" rx="2" fill="white" opacity="0.6"/>
    <rect x="30" y="130" width="100" height="4" rx="2" fill="white" opacity="0.4"/>
    <rect x="30" y="140" width="80" height="4" rx="2" fill="white" opacity="0.4"/>

    <rect x="25" y="185" width="60" height="60" rx="8" fill="white" opacity="0.1"/>
    <rect x="95" y="185" width="60" height="60" rx="8" fill="white" opacity="0.1"/>

    <rect x="25" y="260" width="130" height="40" rx="20" fill="white" opacity="0.9"/>
    <text x="90" y="285" text-anchor="middle" fill="#3BB77E" font-family="Arial" font-size="8" font-weight="600">Shop Now</text>
  </g>

  <!-- Phone 2 (Center/Main) -->
  <g transform="translate(110, 20)">
    <rect width="180" height="380" rx="25" fill="#1f2937"/>
    <rect x="8" y="8" width="164" height="364" rx="17" fill="#111827"/>
    <rect x="15" y="30" width="150" height="320" rx="12" fill="white"/>

    <!-- Screen content for Phone 2 -->
    <rect x="25" y="50" width="130" height="25" rx="12" fill="#3BB77E"/>
    <text x="90" y="67" text-anchor="middle" fill="white" font-family="Arial" font-size="12" font-weight="700">TindaGo</text>

    <!-- Categories -->
    <rect x="25" y="90" width="40" height="40" rx="8" fill="#f3f4f6"/>
    <rect x="75" y="90" width="40" height="40" rx="8" fill="#f3f4f6"/>
    <rect x="125" y="90" width="40" height="40" rx="8" fill="#f3f4f6"/>

    <text x="45" y="115" text-anchor="middle" fill="#6b7280" font-family="Arial" font-size="6">Food</text>
    <text x="95" y="115" text-anchor="middle" fill="#6b7280" font-family="Arial" font-size="6">Drinks</text>
    <text x="145" y="115" text-anchor="middle" fill="#6b7280" font-family="Arial" font-size="6">Snacks</text>

    <!-- Product list -->
    <rect x="25" y="150" width="130" height="50" rx="8" fill="#f9fafb" stroke="#e5e7eb"/>
    <circle cx="45" cy="175" r="12" fill="#3BB77E"/>
    <rect x="65" y="165" width="70" height="6" rx="3" fill="#374151"/>
    <rect x="65" y="175" width="50" height="5" rx="2" fill="#6b7280"/>
    <rect x="65" y="185" width="30" height="5" rx="2" fill="#3BB77E"/>

    <rect x="25" y="210" width="130" height="50" rx="8" fill="#f9fafb" stroke="#e5e7eb"/>
    <circle cx="45" cy="235" r="12" fill="#3BB77E"/>
    <rect x="65" y="225" width="70" height="6" rx="3" fill="#374151"/>
    <rect x="65" y="235" width="50" height="5" rx="2" fill="#6b7280"/>
    <rect x="65" y="245" width="30" height="5" rx="2" fill="#3BB77E"/>

    <rect x="25" y="270" width="130" height="50" rx="8" fill="#f9fafb" stroke="#e5e7eb"/>
    <circle cx="45" cy="295" r="12" fill="#3BB77E"/>
    <rect x="65" y="285" width="70" height="6" rx="3" fill="#374151"/>
    <rect x="65" y="295" width="50" height="5" rx="2" fill="#6b7280"/>
    <rect x="65" y="305" width="30" height="5" rx="2" fill="#3BB77E"/>
  </g>

  <!-- Phone 3 (Right) -->
  <g transform="translate(200, 80) rotate(10)">
    <rect width="180" height="340" rx="25" fill="#1f2937"/>
    <rect x="8" y="8" width="164" height="324" rx="17" fill="#111827"/>
    <rect x="15" y="20" width="150" height="280" rx="12" fill="#f3f4f6"/>

    <!-- Screen content for Phone 3 -->
    <rect x="25" y="40" width="130" height="20" rx="10" fill="#3BB77E"/>
    <text x="90" y="54" text-anchor="middle" fill="white" font-family="Arial" font-size="10" font-weight="600">Order Summary</text>

    <rect x="25" y="75" width="130" height="30" rx="6" fill="white" stroke="#e5e7eb"/>
    <rect x="30" y="85" width="80" height="4" rx="2" fill="#374151"/>
    <rect x="30" y="92" width="60" height="4" rx="2" fill="#6b7280"/>
    <rect x="120" y="85" width="25" height="8" rx="4" fill="#3BB77E"/>

    <rect x="25" y="115" width="130" height="30" rx="6" fill="white" stroke="#e5e7eb"/>
    <rect x="30" y="125" width="80" height="4" rx="2" fill="#374151"/>
    <rect x="30" y="132" width="60" height="4" rx="2" fill="#6b7280"/>
    <rect x="120" y="125" width="25" height="8" rx="4" fill="#3BB77E"/>

    <rect x="25" y="155" width="130" height="30" rx="6" fill="white" stroke="#e5e7eb"/>
    <rect x="30" y="165" width="80" height="4" rx="2" fill="#374151"/>
    <rect x="30" y="172" width="60" height="4" rx="2" fill="#6b7280"/>
    <rect x="120" y="165" width="25" height="8" rx="4" fill="#3BB77E"/>

    <line x1="35" y1="200" x2="145" y2="200" stroke="#e5e7eb" stroke-width="1"/>

    <rect x="25" y="210" width="130" height="20" rx="6" fill="#f9fafb"/>
    <text x="35" y="224" fill="#374151" font-family="Arial" font-size="8" font-weight="600">Total: ₱250.00</text>

    <rect x="25" y="240" width="130" height="30" rx="15" fill="#3BB77E"/>
    <text x="90" y="259" text-anchor="middle" fill="white" font-family="Arial" font-size="10" font-weight="600">Place Order</text>
  </g>

  <!-- Floating elements -->
  <circle cx="50" cy="150" r="8" fill="#3BB77E" opacity="0.3"/>
  <circle cx="350" cy="200" r="6" fill="#3BB77E" opacity="0.4"/>
  <circle cx="320" cy="450" r="10" fill="#3BB77E" opacity="0.2"/>
  <circle cx="80" cy="500" r="5" fill="#3BB77E" opacity="0.3"/>
</svg>